<svg width="385.246" height="61.177" viewBox="0 0 385.246 61.177" xmlns="http://www.w3.org/2000/svg"><g id="svgGroup" stroke-linecap="round" fill-rule="evenodd" font-size="9pt" stroke="#00000000" stroke-width="0.25mm" fill="#c1c1c1" style="stroke:#00000000;stroke-width:0.25mm;fill:#c1c1c1"><path d="M 18.986 0.003 L 46.408 0.003 L 46.408 8.44 L 21.095 8.44 A 16.015 16.015 0 0 0 17.214 8.885 A 11.196 11.196 0 0 0 11.849 11.886 Q 8.439 15.331 8.439 20.042 A 11.154 11.154 0 0 0 11.744 28.126 A 13.66 13.66 0 0 0 11.849 28.233 A 11.34 11.34 0 0 0 17.685 31.31 A 16.594 16.594 0 0 0 21.095 31.643 L 25.314 31.643 Q 29.564 31.643 32.208 33.656 A 8.613 8.613 0 0 1 33.084 34.421 A 9.136 9.136 0 0 1 35.86 41.013 A 11.089 11.089 0 0 1 35.861 41.136 A 9.174 9.174 0 0 1 33.127 47.771 A 11.453 11.453 0 0 1 33.084 47.815 A 9.094 9.094 0 0 1 28.747 50.232 Q 27.296 50.6 25.576 50.626 A 17.416 17.416 0 0 1 25.314 50.628 L 0.002 50.628 L 0.002 42.19 L 25.314 42.19 A 6.334 6.334 0 0 0 26.018 42.155 Q 26.724 42.075 27.075 41.819 A 0.803 0.803 0 0 0 27.424 41.136 Q 27.424 40.081 25.314 40.081 L 18.986 40.081 Q 11.744 40.081 5.873 34.21 Q 0.002 28.339 0.002 20.042 A 19.312 19.312 0 0 1 5.691 6.094 A 23.753 23.753 0 0 1 5.873 5.909 A 21.963 21.963 0 0 1 10.669 2.196 A 16.719 16.719 0 0 1 18.986 0.003 Z M 21.095 10.55 L 46.408 10.55 L 46.408 18.987 L 21.095 18.987 A 6.334 6.334 0 0 0 20.392 19.023 Q 19.686 19.102 19.335 19.359 A 0.803 0.803 0 0 0 18.986 20.042 Q 18.986 21.097 21.095 21.097 L 27.424 21.097 Q 34.666 21.097 40.537 26.968 Q 46.408 32.839 46.408 41.136 A 19.312 19.312 0 0 1 40.719 55.083 A 23.753 23.753 0 0 1 40.537 55.268 A 21.963 21.963 0 0 1 35.741 58.981 A 16.719 16.719 0 0 1 27.424 61.175 L 0.002 61.175 L 0.002 52.737 L 25.314 52.737 A 16.015 16.015 0 0 0 29.196 52.292 A 11.196 11.196 0 0 0 34.56 49.292 Q 37.97 45.847 37.97 41.136 A 11.154 11.154 0 0 0 34.666 33.051 A 13.66 13.66 0 0 0 34.56 32.944 A 11.34 11.34 0 0 0 28.725 29.867 A 16.594 16.594 0 0 0 25.314 29.534 L 21.095 29.534 Q 16.846 29.534 14.201 27.522 A 8.613 8.613 0 0 1 13.326 26.757 A 9.136 9.136 0 0 1 10.549 20.165 A 11.089 11.089 0 0 1 10.549 20.042 A 9.174 9.174 0 0 1 13.283 13.406 A 11.453 11.453 0 0 1 13.326 13.362 A 9.094 9.094 0 0 1 17.663 10.945 Q 19.114 10.577 20.834 10.552 A 17.416 17.416 0 0 1 21.095 10.55 Z" id="0" vector-effect="non-scaling-stroke"/><path d="M 73.83 10.55 L 50.627 10.55 L 50.627 18.987 L 65.392 18.987 L 65.392 61.175 L 73.83 61.175 L 73.83 10.55 Z M 75.939 10.55 L 75.939 61.175 L 84.377 61.175 L 84.377 18.987 L 99.142 18.987 L 99.142 10.55 L 75.939 10.55 Z M 99.142 0.003 L 50.627 0.003 L 50.627 8.44 L 99.142 8.44 L 99.142 0.003 Z" id="1" vector-effect="non-scaling-stroke"/><path d="M 147.658 0.003 L 147.658 42.19 A 27.33 27.33 0 0 1 146.717 49.703 Q 144.304 58.128 135.704 60.365 A 27.97 27.97 0 0 1 128.674 61.175 L 122.345 61.175 A 27.33 27.33 0 0 1 114.833 60.234 Q 106.408 57.82 104.17 49.221 A 27.97 27.97 0 0 1 103.361 42.19 L 103.361 0.003 L 111.799 0.003 L 111.799 42.19 Q 111.799 52.737 122.345 52.737 L 128.674 52.737 Q 139.22 52.737 139.22 42.19 L 139.22 0.003 L 147.658 0.003 Z M 137.111 0.003 L 137.111 42.19 A 12.147 12.147 0 0 1 136.693 45.529 Q 135.232 50.628 128.674 50.628 L 122.345 50.628 A 12.147 12.147 0 0 1 119.006 50.21 Q 113.908 48.749 113.908 42.19 L 113.908 0.003 L 122.345 0.003 L 122.345 40.081 A 3.037 3.037 0 0 0 122.45 40.916 Q 122.815 42.19 124.455 42.19 L 126.564 42.19 A 3.037 3.037 0 0 0 127.399 42.086 Q 128.674 41.721 128.674 40.081 L 128.674 0.003 L 137.111 0.003 Z" id="2" vector-effect="non-scaling-stroke"/><path d="M 196.174 18.987 L 196.174 42.19 A 27.33 27.33 0 0 1 195.232 49.703 Q 192.819 58.128 184.22 60.365 A 27.97 27.97 0 0 1 177.189 61.175 L 151.877 61.175 L 151.877 21.097 L 160.314 21.097 L 160.314 52.737 L 177.189 52.737 Q 187.736 52.737 187.736 42.19 L 187.736 18.987 Q 187.736 8.44 177.189 8.44 L 151.877 8.44 L 151.877 0.003 L 177.189 0.003 A 27.33 27.33 0 0 1 184.702 0.944 Q 193.126 3.357 195.364 11.957 A 27.97 27.97 0 0 1 196.174 18.987 Z M 185.627 18.987 L 185.627 42.19 A 12.147 12.147 0 0 1 185.208 45.529 Q 183.748 50.628 177.189 50.628 L 162.424 50.628 L 162.424 21.097 L 170.861 21.097 L 170.861 42.19 L 175.08 42.19 A 3.037 3.037 0 0 0 175.915 42.086 Q 177.189 41.721 177.189 40.081 L 177.189 21.097 A 3.037 3.037 0 0 0 177.085 20.262 Q 176.72 18.987 175.08 18.987 L 151.877 18.987 L 151.877 10.55 L 177.189 10.55 A 12.147 12.147 0 0 1 180.528 10.968 Q 185.627 12.428 185.627 18.987 Z" id="3" vector-effect="non-scaling-stroke"/><path d="M 208.83 61.175 L 200.392 61.175 L 200.392 0.003 L 208.83 0.003 L 208.83 61.175 Z M 219.377 61.175 L 210.939 61.175 L 210.939 0.003 L 219.377 0.003 L 219.377 61.175 Z" id="4" vector-effect="non-scaling-stroke"/><path d="M 270.002 18.987 L 270.002 42.19 A 27.33 27.33 0 0 1 269.061 49.703 Q 266.648 58.128 258.048 60.365 A 27.97 27.97 0 0 1 251.017 61.175 L 242.58 61.175 A 27.33 27.33 0 0 1 235.067 60.234 Q 226.643 57.82 224.405 49.221 A 27.97 27.97 0 0 1 223.595 42.19 L 223.595 18.987 A 27.33 27.33 0 0 1 224.537 11.474 Q 226.95 3.05 235.549 0.812 A 27.97 27.97 0 0 1 242.58 0.003 L 251.017 0.003 A 27.33 27.33 0 0 1 258.53 0.944 Q 266.955 3.357 269.192 11.957 A 27.97 27.97 0 0 1 270.002 18.987 Z M 261.564 42.19 L 261.564 18.987 Q 261.564 8.44 251.017 8.44 L 242.58 8.44 Q 232.033 8.44 232.033 18.987 L 232.033 42.19 Q 232.033 52.737 242.58 52.737 L 251.017 52.737 Q 261.564 52.737 261.564 42.19 Z M 259.455 18.987 L 259.455 42.19 A 12.147 12.147 0 0 1 259.037 45.529 Q 257.576 50.628 251.017 50.628 L 242.58 50.628 A 12.147 12.147 0 0 1 239.241 50.21 Q 234.142 48.749 234.142 42.19 L 234.142 18.987 A 12.147 12.147 0 0 1 234.561 15.648 Q 236.021 10.55 242.58 10.55 L 251.017 10.55 A 12.147 12.147 0 0 1 254.356 10.968 Q 259.455 12.428 259.455 18.987 Z M 251.017 40.081 L 251.017 21.097 A 3.037 3.037 0 0 0 250.913 20.262 Q 250.548 18.987 248.908 18.987 L 244.689 18.987 A 3.037 3.037 0 0 0 243.854 19.092 Q 242.58 19.457 242.58 21.097 L 242.58 40.081 A 3.037 3.037 0 0 0 242.684 40.916 Q 243.05 42.19 244.689 42.19 L 248.908 42.19 A 3.037 3.037 0 0 0 249.743 42.086 Q 251.017 41.721 251.017 40.081 Z" id="5" vector-effect="non-scaling-stroke"/><path d="M 319.853 40.081 L 307.197 40.081 A 12.147 12.147 0 0 1 303.858 39.663 Q 298.76 38.202 298.76 31.643 L 298.76 0.003 L 307.197 0.003 L 307.197 29.534 A 1.684 1.684 0 0 0 308.235 31.108 Q 309.29 31.643 311.416 31.643 L 311.416 0.003 L 319.853 0.003 L 319.853 40.081 Z M 311.416 50.628 L 306.494 50.628 A 25.261 25.261 0 0 1 299.149 49.653 Q 288.213 46.327 288.213 31.643 L 288.213 0.003 L 296.65 0.003 L 296.65 31.643 Q 296.65 42.19 307.197 42.19 L 319.853 42.19 L 319.853 61.175 L 311.416 61.175 L 311.416 50.628 Z M 321.963 40.081 L 321.963 0.003 L 330.4 0.003 L 330.4 31.643 L 336.728 31.643 L 336.728 40.081 L 321.963 40.081 Z M 330.4 61.175 L 321.963 61.175 L 321.963 42.19 L 336.728 42.19 L 336.728 50.628 L 330.4 50.628 L 330.4 61.175 Z" id="7" vector-effect="non-scaling-stroke"/><path d="M 366.26 29.534 L 359.931 29.534 A 12.434 12.434 0 0 0 355.379 30.301 Q 349.958 32.424 349.439 40.43 A 27.243 27.243 0 0 0 349.385 42.19 L 349.385 52.737 L 385.244 52.737 L 385.244 61.175 L 340.947 61.175 L 340.947 42.19 A 34.144 34.144 0 0 1 341.792 34.23 Q 344.354 23.579 354.691 21.566 A 27.437 27.437 0 0 1 359.931 21.097 L 364.15 21.097 A 6.334 6.334 0 0 0 364.854 21.061 Q 365.559 20.982 365.911 20.725 A 0.803 0.803 0 0 0 366.26 20.042 Q 366.26 18.987 364.15 18.987 L 340.947 18.987 L 340.947 10.55 L 366.26 10.55 Q 369.142 10.55 371.92 13.362 Q 374.697 16.175 374.697 20.042 A 9.137 9.137 0 0 1 372.006 26.67 A 11.008 11.008 0 0 1 371.92 26.757 Q 369.963 28.714 367.954 29.292 A 6.1 6.1 0 0 1 366.26 29.534 Z M 366.26 40.081 L 362.041 40.081 A 3.037 3.037 0 0 0 361.206 40.186 Q 359.931 40.551 359.931 42.19 L 385.244 42.19 L 385.244 50.628 L 351.494 50.628 L 351.494 42.19 A 19.353 19.353 0 0 1 351.842 38.341 Q 353.208 31.643 359.931 31.643 L 366.26 31.643 A 8.584 8.584 0 0 0 370.573 30.441 Q 371.786 29.747 372.962 28.652 A 16.91 16.91 0 0 0 373.396 28.233 A 11.159 11.159 0 0 0 376.806 20.191 A 13.321 13.321 0 0 0 376.806 20.042 A 11.194 11.194 0 0 0 373.449 11.94 A 14.14 14.14 0 0 0 373.396 11.886 Q 370.74 9.202 367.892 8.609 A 7.983 7.983 0 0 0 366.26 8.44 L 340.947 8.44 L 340.947 0.003 L 366.26 0.003 A 17.136 17.136 0 0 1 376.739 3.608 A 23.92 23.92 0 0 1 379.373 5.909 A 19.669 19.669 0 0 1 384.418 14.198 A 20.278 20.278 0 0 1 385.244 20.042 A 19.283 19.283 0 0 1 379.555 34.026 A 23.342 23.342 0 0 1 379.373 34.21 A 21.869 21.869 0 0 1 374.477 37.956 A 16.785 16.785 0 0 1 366.26 40.081 Z" id="8" vector-effect="non-scaling-stroke"/></g></svg>